<?xml version="1.0" encoding="UTF-8"?>
<svg xmlns:xlink="http://www.w3.org/1999/xlink" width="180px" height="135px" viewBox="0 0 180 135" version="1.1" xmlns="http://www.w3.org/2000/svg">
    <title>Miltenyi Biotec Logo</title>
    <g id="Logo_MiltenyiBiotec_RGB_ProtectedArea" stroke="none" stroke-width="1" fill="none" fill-rule="evenodd">
        <path d="M58,101 C57.6659135,99.8996134 57.2535101,98.8351415 56.763781,97.8135678 C56.4485303,97.1541339 56.1015562,96.5126574 55.7268242,95.8911336 C55.3511009,95.2696097 54.9466282,94.6670408 54.5143977,94.0864198 C53.0045648,92.0542462 51.1626282,90.2864447 49.0688876,88.8628258 C48.1727032,88.2542711 47.2289337,87.7075695 46.2465014,87.2307021 C44.2806455,86.2769672 42.1561729,85.6035665 39.9236427,85.2613792 C39.5508934,85.2035166 39.1761614,85.1556304 38.7984553,85.1167228 C38.0430432,85.0399052 37.2757349,85 36.4995043,85 C35.7232738,85 34.9569568,85.0399052 34.2015447,85.1167228 C33.8228473,85.1556304 33.4481153,85.2035166 33.0763573,85.2613792 C32.3318501,85.3751091 31.6002305,85.5257513 30.8814986,85.7123083 C30.5226282,85.8040903 30.166732,85.9068462 29.8148012,86.0165856 C29.1109395,86.237062 28.4219481,86.4914578 27.7488184,86.7777778 C26.0684726,87.4930789 24.4912277,88.4079062 23.0488069,89.494326 C22.1833545,90.1447811 21.3664784,90.858087 20.6031354,91.625265 C18.0355274,94.2091283 16.0885072,97.4155132 15,101 L58,101" id="Fill-1" fill="#F28011"></path>
        <path d="M19,63.5806309 C19.5005183,64.2371939 20.0612567,64.8420031 20.6861642,65.3717185 C22.068266,66.54379 23.7287625,67.3830135 25.5501752,67.7666005 C26.2787403,67.9188176 27.0339602,68 27.8059628,68 C28.9649538,68 30.0834691,67.8193691 31.1348536,67.4824619 C32.5366997,67.033929 33.8210672,66.3103905 34.9267486,65.3717185 C37.4145318,63.2609751 39,60.0664461 39,56.4923891 C39,52.9183322 37.4145318,49.724818 34.9267486,47.6150893 C33.8210672,46.6764174 32.5366997,45.9528789 31.1348536,45.5053607 C30.1545486,45.1907787 29.1140234,45.0223252 28.0379584,45 L19,63.5806309" id="Fill-2" fill="#43388A"></path>
        <path d="M87.4225774,71.6204452 L69.968032,37 C62.7292707,42.0857354 58,50.4513441 58,59.9165178 C58,75.4233548 70.6783217,88 86.3176823,88 C89.2507493,88 92.0789211,87.5572022 94.7392607,86.7369862 C94.8271728,86.7102401 94.9120879,86.6775503 95,86.6498135 L87.4225774,71.6204452" id="Fill-3" fill="#F28011"></path>
        <path d="M36.6056225,81.5639809 C48.7156553,81.5639809 58.9240713,89.8282882 61.8736813,101 L102,101 L96.1618962,89.3453871 C92.9447773,90.4401629 89.5022297,91.0440392 85.9184135,91.0440392 C68.3790543,91.0440392 54.1099149,76.802956 54.1099149,59.2985413 C54.1099149,48.431767 59.6143842,38.8267343 67.9843035,33.1029066 L62.8705774,22.896997 C60.7515471,23.6408446 58.4832328,24.0667574 56.1107204,24.0667574 C50.4329214,24.0667574 45.2921439,21.7412337 41.5830894,18 L29.7686187,41.5811701 C37.0264228,42.5069805 42.659136,48.6947131 42.659136,56.1841791 C42.659136,64.3115145 36.0335344,70.9231603 27.8900458,70.9231603 C23.7431586,70.9231603 19.9970336,69.2015129 17.3109247,66.4460773 L0,101 L11.3375636,101 C14.2871736,89.8282882 24.4965916,81.5639809 36.6056225,81.5639809" id="Fill-4" fill="#43388A"></path>
        <path d="M45.0462006,17.2006708 C45.4112738,17.4970654 45.7902736,17.778787 46.1802155,18.0448575 C48.9127936,19.9083287 52.2302846,21 55.8074054,21 C57.5601547,21 59.2502349,20.7378424 60.8388505,20.2516769 C60.8945565,20.2350475 60.9452888,20.2115707 61,20.1939631 L50.7341807,0 L43,15.2129681 C43.6266925,15.9280324 44.3051119,16.5990777 45.0462006,17.2006708" id="Fill-5" fill="#43388A"></path>
        <path d="M133.102864,113.213749 C131.975313,113.213749 131.237643,113.993126 131.237643,115.009441 C131.237643,116.001558 131.951258,116.805133 133.05676,116.805133 C134.230416,116.805133 134.944031,116.001558 134.944031,115.009441 C134.920979,113.993126 134.230416,113.213749 133.102864,113.213749 Z M131.329852,129.779285 L134.82877,129.779285 L134.82877,118.22374 L131.329852,118.22374 L131.329852,129.779285 Z M107.867753,113.212741 C106.740202,113.212741 106.004537,113.992117 106.004537,115.008433 C106.004537,116.001558 106.717149,116.804125 107.821649,116.804125 C108.996307,116.804125 109.709922,116.001558 109.709922,115.008433 C109.685868,113.992117 108.996307,113.212741 107.867753,113.212741 Z M122.37258,127.273786 C121.774226,127.273786 121.359287,127.273786 121.014507,127.226398 L121.014507,122.736664 L122.211215,122.736664 C123.961175,122.736664 125.364351,123.374885 125.364351,124.957837 C125.364351,126.635564 123.961175,127.273786 122.37258,127.273786 Z M121.014507,116.451237 C121.291133,116.40385 121.728122,116.356462 122.509891,116.356462 C124.098486,116.356462 124.996518,116.994684 124.996518,118.199542 C124.996518,119.38121 124.02933,120.160587 122.165111,120.160587 L121.014507,120.160587 L121.014507,116.451237 Z M125.962705,121.2011 L125.962705,121.153712 C127.712666,120.468103 128.517487,119.168469 128.517487,117.77406 C128.517487,116.309074 127.75877,115.222181 126.67632,114.631347 C125.525716,113.945738 124.213747,113.732997 122.072902,113.732997 C120.300891,113.732997 118.458722,113.899358 117.53864,114.064711 L117.53864,129.707699 C118.321412,129.825665 119.610329,129.944638 121.336235,129.944638 C124.421216,129.944638 126.307485,129.424381 127.435037,128.502841 C128.402226,127.699267 129.047687,126.564986 129.047687,125.1 C129.047687,123.067369 127.734715,121.672961 125.962705,121.2011 Z M162.043361,122.689276 C162.134568,121.744546 162.732922,120.350137 164.206256,120.350137 C165.817904,120.350137 166.185736,121.815124 166.185736,122.689276 L162.043361,122.689276 Z M164.413726,117.963611 C160.50087,117.963611 158.72886,121.2011 158.72886,124.131072 C158.72886,127.746654 160.915809,130.015215 164.735454,130.015215 C166.254893,130.015215 167.659071,129.779285 168.810677,129.282218 L168.349633,126.848304 C167.405497,127.17901 166.438308,127.344363 165.242602,127.344363 C163.607902,127.344363 162.158622,126.635564 162.066413,125.147388 L169.316822,125.147388 C169.361924,124.887259 169.432083,124.343813 169.432083,123.729789 C169.432083,120.870394 168.050957,117.963611 164.413726,117.963611 Z M177.560479,127.203208 C175.857625,127.203208 174.476499,126.068928 174.476499,123.96572 C174.453447,122.075252 175.650156,120.728231 177.491322,120.728231 C178.412407,120.728231 179.033813,120.893584 179.44775,121.083135 L180,118.412282 C179.263333,118.128964 178.251042,117.963611 177.33096,117.963611 C173.141478,117.963611 170.885372,120.728231 170.885372,124.107883 C170.885372,127.722456 173.209632,130.015215 176.846864,130.015215 C178.181885,130.015215 179.355541,129.779285 179.976948,129.471769 L179.563011,126.825115 C179.033813,127.061045 178.388353,127.203208 177.560479,127.203208 Z M106.095743,129.778277 L109.594662,129.778277 L109.594662,118.222731 L106.095743,118.222731 L106.095743,129.778277 Z M142.909057,127.463336 C141.413673,127.463336 140.607849,125.974152 140.607849,123.988909 C140.607849,122.287993 141.252308,120.51549 142.909057,120.51549 C144.497653,120.51549 145.141109,122.263795 145.141109,123.96572 C145.141109,126.068928 144.290183,127.463336 142.909057,127.463336 Z M143.024318,117.939413 C139.387087,117.939413 136.994672,120.326948 136.994672,124.083685 C136.994672,127.817232 139.5254,130.038405 142.816849,130.038405 C145.832674,130.038405 148.755288,128.101558 148.755288,123.870944 C148.755288,120.373327 146.45408,117.939413 143.024318,117.939413 Z M154.83605,115.104216 L151.406288,116.073144 L151.406288,118.22374 L149.910904,118.22374 L149.910904,120.870394 L151.406288,120.870394 L151.406288,125.596059 C151.406288,127.226398 151.729018,128.337489 152.373477,129.023098 C152.948779,129.613932 153.892916,130.015215 155.020467,130.015215 C155.987656,130.015215 156.838582,129.873052 157.276573,129.707699 L157.252519,126.990467 C156.930791,127.061045 156.701271,127.085243 156.217176,127.085243 C155.181833,127.085243 154.83605,126.447021 154.83605,125.052612 L154.83605,120.870394 L157.344728,120.870394 L157.344728,118.22374 L154.83605,118.22374 L154.83605,115.104216 Z M54.1311389,129.778277 L57.6300575,129.778277 L57.6300575,113 L54.1311389,113 L54.1311389,129.778277 Z M64.3753231,115.103208 L60.9465633,116.072136 L60.9465633,118.222731 L59.4501767,118.222731 L59.4501767,120.869386 L60.9465633,120.869386 L60.9465633,125.59505 C60.9465633,127.22539 61.2682914,128.33648 61.9127499,129.02209 C62.4880519,129.612924 63.4321886,130.014207 64.5597405,130.014207 C65.5259271,130.014207 66.3778551,129.872044 66.8148441,129.706691 L66.7927942,126.989459 C66.4700638,127.060037 66.2395421,127.084235 65.7564488,127.084235 C64.7211057,127.084235 64.3753231,126.446013 64.3753231,125.051604 L64.3753231,120.869386 L66.8850029,120.869386 L66.8850029,118.222731 L64.3753231,118.222731 L64.3753231,115.103208 Z M99.4857836,123.894134 C99.3254207,124.578735 99.1410033,125.429698 99.0026903,126.067919 L98.9104816,126.067919 C98.7721686,125.453896 98.5416469,124.578735 98.3582318,123.917324 L96.6774279,118.222731 L92.7876246,118.222731 L96.9310017,128.809349 C97.0462626,129.092667 97.0693148,129.25802 97.0693148,129.400183 C97.0693148,129.541338 97.0001583,129.730889 96.8848974,129.919432 C96.5631693,130.487076 95.9648151,131.07791 95.4356175,131.361228 C94.9054175,131.668744 94.3531677,131.881485 93.9161787,131.975252 L94.6758981,135 C95.549876,134.906233 96.8387931,134.503941 98.0355014,133.417049 C99.3013662,132.259578 100.383816,130.439688 101.995463,125.831989 L104.6184,118.222731 L100.889961,118.222731 L99.4857836,123.894134 Z M47.8228623,129.778277 L51.3217809,129.778277 L51.3217809,118.222731 L47.8228623,118.222731 L47.8228623,129.778277 Z M39.6914596,113.850962 L38.0577623,119.144271 C37.5285646,120.916774 36.999367,123.018973 36.5844279,124.863061 L36.4932215,124.863061 C36.1474389,122.995784 35.6873978,121.010541 35.18025,119.167461 L33.6608113,113.850962 L28.9892388,113.850962 L28,129.778277 L31.2443425,129.778277 L31.5440207,123.728781 C31.6362294,121.743538 31.728438,119.285426 31.7975946,117.135839 L31.8436989,117.135839 C32.2345835,119.214849 32.740729,121.48341 33.2468745,123.373877 L34.9046263,129.518148 L37.6438255,129.518148 L39.5310967,123.3033 C40.1294509,121.436022 40.7739094,119.167461 41.2800549,117.135839 L41.3261592,117.135839 C41.3261592,119.450779 41.3953157,121.766728 41.4644722,123.681393 L41.7170438,129.778277 L45.1237538,129.778277 L44.2958801,113.850962 L39.6914596,113.850962 Z M71.4904257,122.688268 C71.5816321,121.743538 72.1799863,120.349129 73.6533207,120.349129 C75.2649681,120.349129 75.6328005,121.814115 75.6328005,122.688268 L71.4904257,122.688268 Z M73.8607902,117.962603 C69.9469325,117.962603 68.1759245,121.200092 68.1759245,124.130064 C68.1759245,127.745646 70.3628739,130.014207 74.1825183,130.014207 C75.7019571,130.014207 77.1061349,129.778277 78.2577412,129.28121 L77.7966978,126.847296 C76.8525611,127.178002 75.8863744,127.344363 74.6896661,127.344363 C73.0549665,127.344363 71.6056866,126.634555 71.5134779,125.146379 L78.7628844,125.146379 C78.8089888,124.886251 78.8791475,124.342805 78.8791475,123.728781 C78.8791475,120.869386 77.4980218,117.962603 73.8607902,117.962603 Z M87.6289497,117.962603 C85.7406763,117.962603 84.6131244,119.072686 84.1530833,119.828873 L84.0839268,119.828873 L83.9235639,118.222731 L80.8856887,118.222731 C80.9307907,119.262236 80.9768951,120.467094 80.9768951,121.908891 L80.9768951,129.778277 L84.4758137,129.778277 L84.4758137,123.113749 C84.4758137,122.783043 84.4988659,122.452337 84.5910745,122.216407 C84.8436461,121.553987 85.4189481,120.869386 86.386137,120.869386 C87.6520019,120.869386 88.1581474,121.884693 88.1581474,123.373877 L88.1581474,129.778277 L91.6560637,129.778277 L91.6560637,122.948396 C91.6560637,119.545555 89.9301577,117.962603 87.6289497,117.962603 Z M49.5948726,113.212741 C48.4673208,113.212741 47.7306536,113.992117 47.7306536,115.008433 C47.7306536,116.001558 48.4442686,116.804125 49.5487683,116.804125 C50.7234267,116.804125 51.4370417,116.001558 51.4370417,115.008433 C51.4129873,113.992117 50.7234267,113.212741 49.5948726,113.212741 L49.5948726,113.212741 Z" id="Fill-6" fill="#43388A"></path>
    </g>
</svg>
